# xmcd CD database file generated by Grip 3.3.1
# 
# Track frame offsets:
#       150
#       27104
#       38887
#       53684
#       67786
#       101724
#       116473
#       144566
#       158986
#       186832
#       202735
#       223971
#       244941
#       276103
# 
# Disc length: 3937 seconds
# 
# Revision: 1
# Processed by: cddbd v1.5.2PL0 Copyright (c) Steve Scherf et al.
# Submitted via: Grip 3.3.1
# 
DISCID=c60f5f0e
DTITLE=Pieter-Jan Belder, harpsichord - SCARLATTI Keyboard Sonatas - 30 
DTITLE=DS30
DYEAR=2007
DGENRE=Classical
TTITLE0=Sonata K 462 in F minor, Andante
TTITLE1=Sonata K 463 in F minor, Molto allegro
TTITLE2=Sonata K 464 in C major, Allegro
TTITLE3=Sonata K 465 in C major, Allegro
TTITLE4=Sonata K 466 in F minor, Andante moderato
TTITLE5=Sonata K 467 in F minor, Allegrissimo
TTITLE6=Sonata K 468 in F minor, Allegro
TTITLE7=Sonata K 469 in F major, Allegro molto
TTITLE8=Sonata K 470 in G major, Allegro
TTITLE9=Sonata K 471 in G major, Minuet
TTITLE10=Sonata K 472 in B flat major, Andante
TTITLE11=Sonata K 473 in B flat major, Allegro molto
TTITLE12=Sonata K 474 in E flat major, Andante e cantabile
TTITLE13=Sonata K 475 in E flat major, Allegrissimo
EXTD=
EXTT0=
EXTT1=
EXTT2=
EXTT3=
EXTT4=
EXTT5=
EXTT6=
EXTT7=
EXTT8=
EXTT9=
EXTT10=
EXTT11=
EXTT12=
EXTT13=
PLAYORDER=
